<svg width="40" height="32" viewBox="0 0 40 32" fill="none" xmlns="http://www.w3.org/2000/svg">
<path d="M33.3305 3.23261C37.7703 9.92828 39.963 17.4808 39.1433 26.1755C39.1399 26.2123 39.1212 26.2461 39.0917 26.2683C35.7295 28.8006 32.472 30.3374 29.2601 31.3566C29.2351 31.3644 29.2084 31.3639 29.1836 31.3553C29.1589 31.3468 29.1373 31.3304 29.1221 31.3087C28.38 30.2497 27.7058 29.1332 27.1152 27.9608C27.0813 27.8918 27.1122 27.8086 27.182 27.7814C28.2528 27.3676 29.271 26.8716 30.2503 26.2844C30.3275 26.238 30.3324 26.1246 30.2611 26.0702C30.0533 25.9119 29.8474 25.7456 29.6503 25.5793C29.6135 25.5485 29.5638 25.5425 29.5221 25.5631C23.1638 28.5748 16.1986 28.5748 9.76508 25.5631C9.72331 25.544 9.67368 25.5505 9.6378 25.5808C9.44124 25.7471 9.23485 25.9119 9.02895 26.0702C8.9577 26.1246 8.9636 26.238 9.04124 26.2844C10.0206 26.8605 11.0388 27.3676 12.1081 27.7834C12.1774 27.8106 12.2103 27.8918 12.1759 27.9608C11.598 29.1348 10.9238 30.2512 10.168 31.3102C10.1351 31.353 10.0811 31.3727 10.0299 31.3566C6.83335 30.3374 3.57582 28.8006 0.213616 26.2683C0.185606 26.2461 0.165458 26.2108 0.162509 26.174C-0.522511 18.6532 0.873574 11.0382 5.96995 3.23109C5.98223 3.21043 6.00091 3.1943 6.02253 3.18472C8.53017 2.00426 11.2167 1.1358 14.0246 0.63982C14.0757 0.631755 14.1268 0.655949 14.1533 0.702321C14.5003 1.33237 14.8968 2.14035 15.1651 2.80064C18.1249 2.33693 21.1308 2.33693 24.1525 2.80064C24.4208 2.15446 24.8036 1.33237 25.149 0.702321C25.1613 0.679317 25.1804 0.660887 25.2035 0.649662C25.2267 0.638438 25.2526 0.634993 25.2778 0.63982C28.0872 1.13731 30.7737 2.00577 33.2794 3.18472C33.3015 3.1943 33.3197 3.21043 33.3305 3.23261ZM16.6698 17.5322C16.7008 15.3089 15.1204 13.4692 13.1366 13.4692C11.169 13.4692 9.6039 15.2928 9.6039 17.5322C9.6039 19.7712 11.2 21.5948 13.1366 21.5948C15.1047 21.5948 16.6698 19.7712 16.6698 17.5322ZM29.7324 17.5322C29.7633 15.3089 28.183 13.4692 26.1997 13.4692C24.2316 13.4692 22.6665 15.2928 22.6665 17.5322C22.6665 19.7712 24.2625 21.5948 26.1997 21.5948C28.183 21.5948 29.7324 19.7712 29.7324 17.5322Z" fill="white"/>
</svg>
