<svg width="40" height="31" viewBox="0 0 40 31" fill="none" xmlns="http://www.w3.org/2000/svg">
<path d="M33.4525 2.73267C37.8924 9.42834 40.085 16.9809 39.2654 25.6756C39.2619 25.7124 39.2433 25.7462 39.2138 25.7683C35.8516 28.3006 32.594 29.8375 29.3822 30.8566C29.3572 30.8644 29.3304 30.864 29.3057 30.8554C29.2809 30.8468 29.2594 30.8305 29.2441 30.8088C28.5021 29.7498 27.8279 28.6333 27.2372 27.4609C27.2033 27.3919 27.2343 27.3087 27.3041 27.2815C28.3748 26.8677 29.393 26.3717 30.3724 25.7845C30.4496 25.7381 30.4545 25.6247 30.3832 25.5703C30.1753 25.412 29.9694 25.2456 29.7724 25.0793C29.7355 25.0486 29.6859 25.0425 29.6441 25.0632C23.2858 28.0748 16.3206 28.0748 9.88715 25.0632C9.84538 25.044 9.79575 25.0506 9.75988 25.0808C9.56331 25.2472 9.35692 25.412 9.15102 25.5703C9.07977 25.6247 9.08567 25.7381 9.16331 25.7845C10.1427 26.3606 11.1609 26.8677 12.2302 27.2835C12.2995 27.3107 12.3324 27.3919 12.298 27.4609C11.7201 28.6348 11.0459 29.7513 10.2901 30.8103C10.2572 30.8531 10.2031 30.8728 10.152 30.8566C6.95542 29.8375 3.69789 28.3006 0.335686 25.7683C0.307676 25.7462 0.287528 25.7109 0.28458 25.6741C-0.400441 18.1533 0.995644 10.5382 6.09202 2.73115C6.1043 2.71049 6.12298 2.69436 6.1446 2.68478C8.65224 1.50432 11.3388 0.635857 14.1467 0.139881C14.1978 0.131816 14.2489 0.15601 14.2754 0.202382C14.6223 0.832433 15.0189 1.64041 15.2872 2.3007C18.247 1.83699 21.2529 1.83699 24.2745 2.3007C24.5429 1.65452 24.9257 0.832433 25.2711 0.202382C25.2834 0.179378 25.3025 0.160948 25.3256 0.149723C25.3487 0.138499 25.3747 0.135054 25.3999 0.139881C28.2092 0.637369 30.8957 1.50583 33.4014 2.68478C33.4235 2.69436 33.4417 2.71049 33.4525 2.73267ZM16.7919 17.0323C16.8229 14.809 15.2425 12.9692 13.2587 12.9692C11.2911 12.9692 9.72597 14.7929 9.72597 17.0323C9.72597 19.2713 11.3221 21.0949 13.2587 21.0949C15.2268 21.0949 16.7919 19.2713 16.7919 17.0323ZM29.8545 17.0323C29.8854 14.809 28.3051 12.9692 26.3217 12.9692C24.3537 12.9692 22.7885 14.7929 22.7885 17.0323C22.7885 19.2713 24.3846 21.0949 26.3217 21.0949C28.3051 21.0949 29.8545 19.2713 29.8545 17.0323Z" fill="#BD59AD"/>
</svg>
