<svg width="258" height="24" viewBox="0 0 258 24" fill="none" xmlns="http://www.w3.org/2000/svg">
<path d="M0.24 23.5V0.619999H5.424L21.616 17.068V0.619999H26.736V23.5H21.552L5.36 7.02V23.5H0.24ZM31.2088 23.5V0.619999H56.2968V4.78H36.3288V9.836H54.4408V13.996H36.3288V19.34H56.2968V23.5H31.2088ZM71.3545 23.66C67.2798 23.66 64.1225 22.6893 61.8825 20.748C59.6425 18.7853 58.5225 15.884 58.5225 12.044C58.5225 8.22533 59.6425 5.34533 61.8825 3.404C64.1225 1.44133 67.3545 0.459999 71.5785 0.459999H77.3385C81.5625 0.459999 84.7945 1.44133 87.0345 3.404C89.2745 5.34533 90.3945 8.22533 90.3945 12.044C90.3945 15.884 89.2745 18.7853 87.0345 20.748C84.7945 22.6893 81.6158 23.66 77.4985 23.66H71.3545ZM71.9305 4.62C69.5625 4.62 67.7172 5.04667 66.3945 5.9C65.0718 6.75333 64.2398 8.108 63.8985 9.964H85.0185C84.6772 8.108 83.8452 6.75333 82.5225 5.9C81.1998 5.04667 79.3545 4.62 76.9865 4.62H71.9305ZM72.0265 19.5H76.9865C79.3758 19.5 81.2212 19.0733 82.5225 18.22C83.8452 17.3667 84.6772 16.0013 85.0185 14.124H63.8985C64.2398 16.0013 65.0718 17.3667 66.3945 18.22C67.7172 19.0733 69.5945 19.5 72.0265 19.5ZM92.6238 16.012V12.332H102.416V16.012H92.6238ZM105.128 12.204V0.619999H133.288V12.204H128.104V4.78H121.128V23.5H116.008V4.78H110.312V12.204H105.128ZM148.511 23.66C144.436 23.66 141.279 22.6893 139.039 20.748C136.799 18.7853 135.679 15.884 135.679 12.044C135.679 8.22533 136.799 5.34533 139.039 3.404C141.279 1.44133 144.511 0.459999 148.735 0.459999H154.495C158.719 0.459999 161.951 1.44133 164.191 3.404C166.431 5.34533 167.551 8.22533 167.551 12.044C167.551 15.884 166.431 18.7853 164.191 20.748C161.951 22.6893 158.772 23.66 154.655 23.66H148.511ZM149.087 4.62C146.719 4.62 144.873 5.04667 143.551 5.9C142.228 6.75333 141.396 8.108 141.055 9.964H162.175C161.833 8.108 161.001 6.75333 159.679 5.9C158.356 5.04667 156.511 4.62 154.143 4.62H149.087ZM149.183 19.5H154.143C156.532 19.5 158.377 19.0733 159.679 18.22C161.001 17.3667 161.833 16.0013 162.175 14.124H141.055C141.396 16.0013 142.228 17.3667 143.551 18.22C144.873 19.0733 146.751 19.5 149.183 19.5ZM170.74 23.5V0.683998H175.86V9.996H183.476L190.996 0.683998H197.364L187.956 12.076L197.364 23.5H190.996L183.444 14.156H175.86V23.5H170.74ZM209.816 23.5V15.34L197.688 0.619999H204.024L212.376 10.988L220.696 0.619999H227.032L214.968 15.308V23.5H209.816ZM238.417 23.66C234.342 23.66 231.185 22.6893 228.945 20.748C226.705 18.7853 225.585 15.884 225.585 12.044C225.585 8.22533 226.705 5.34533 228.945 3.404C231.185 1.44133 234.417 0.459999 238.641 0.459999H244.401C248.625 0.459999 251.857 1.44133 254.097 3.404C256.337 5.34533 257.457 8.22533 257.457 12.044C257.457 15.884 256.337 18.7853 254.097 20.748C251.857 22.6893 248.678 23.66 244.561 23.66H238.417ZM238.993 4.62C236.625 4.62 234.78 5.04667 233.457 5.9C232.134 6.75333 231.302 8.108 230.961 9.964H252.081C251.74 8.108 250.908 6.75333 249.585 5.9C248.262 5.04667 246.417 4.62 244.049 4.62H238.993ZM239.089 19.5H244.049C246.438 19.5 248.284 19.0733 249.585 18.22C250.908 17.3667 251.74 16.0013 252.081 14.124H230.961C231.302 16.0013 232.134 17.3667 233.457 18.22C234.78 19.0733 236.657 19.5 239.089 19.5Z" fill="white"/>
</svg>
