<svg width="41" height="35" viewBox="0 0 41 35" fill="none" xmlns="http://www.w3.org/2000/svg">
<path d="M41 4.82972C39.5076 5.49853 37.9004 5.94441 36.2194 6.15083C37.9414 5.11046 39.2534 3.46732 39.8766 1.51868C38.2694 2.46823 36.49 3.17007 34.5958 3.54164C33.0788 1.91502 30.914 0.899414 28.5196 0.899414C23.9194 0.899414 20.1966 4.64807 20.1966 9.28021C20.1966 9.94077 20.2704 10.5766 20.4098 11.1876C13.4972 10.8408 7.36357 7.50497 3.25537 2.43521C2.54197 3.67375 2.13197 5.11046 2.13197 6.64625C2.13197 9.55269 3.59977 12.1206 5.83017 13.6234C4.46897 13.5821 3.18157 13.2023 2.05817 12.5747C2.05817 12.6078 2.05817 12.6408 2.05817 12.6821C2.05817 16.7445 4.92817 20.1298 8.73297 20.8977C8.03597 21.0876 7.29797 21.195 6.54357 21.195C6.01057 21.195 5.48577 21.1454 4.97737 21.0464C6.03517 24.3739 9.11017 26.8014 12.751 26.8675C9.90557 29.1134 6.31397 30.451 2.41897 30.451C1.74657 30.451 1.08237 30.4097 0.43457 30.3354C4.11637 32.7134 8.49517 34.1006 13.1938 34.1006C28.5032 34.1006 36.8754 21.3353 36.8754 10.2545C36.8754 9.89123 36.8672 9.52792 36.8508 9.17287C38.4744 7.98387 39.8848 6.50588 41 4.82972Z" fill="#BD59AD"/>
</svg>
